<svg width="197" height="71" viewBox="0 0 197 71" fill="none" xmlns="http://www.w3.org/2000/svg">
<g filter="url(#filter0_d_65_6)">
<path d="M193 67L4 67L4.00001 34.8761C4.00001 23.8304 12.9543 14.8761 24 14.8761L173 14.8761C184.046 14.8761 193 23.8304 193 34.8761L193 67Z" fill="url(#paint0_linear_65_6)"/>
<path d="M193 67L4 67L4.00001 34.8761C4.00001 23.8304 12.9543 14.8761 24 14.8761L173 14.8761C184.046 14.8761 193 23.8304 193 34.8761L193 67Z" stroke="url(#paint1_linear_65_6)"/>
</g>
<path d="M50.6 31.31V51.29C50.6 51.99 50.49 52.45 50.27 52.67C50.07 52.89 49.63 53 48.95 53H44.69C43.51 53 42.73 52.82 42.35 52.46C41.99 52.1 41.67 51.17 41.39 49.67C40.83 46.71 40.02 41.93 38.96 35.33C38.88 34.83 38.76 34.51 38.6 34.37C38.46 34.23 38.21 34.15 37.85 34.13H34.16V31.31H40.67C41.17 31.31 41.57 31.37 41.87 31.49C42.17 31.61 42.41 31.87 42.59 32.27C42.79 32.65 42.92 33.02 42.98 33.38C43.06 33.74 43.14 34.16 43.22 34.64C43.32 35.22 43.46 36.07 43.64 37.19C43.98 39.45 44.51 42.64 45.23 46.76C45.51 48.52 45.7 49.51 45.8 49.73C45.92 49.93 46.12 50.05 46.4 50.09V32.51C46.4 32.15 46.5 31.86 46.7 31.64C46.9 31.42 47.16 31.31 47.48 31.31H50.6ZM34.16 35.18H37.28C37.6 35.18 37.86 35.29 38.06 35.51C38.26 35.73 38.36 36.02 38.36 36.38V51.29C38.36 51.97 38.27 52.43 38.09 52.67C37.91 52.89 37.55 53 37.01 53H34.16V35.18ZM60.0615 31.31V49.28C60.0615 49.58 60.1315 49.8 60.2715 49.94C60.4315 50.08 60.7715 50.15 61.2915 50.15H63.5115V53H59.7015C58.9015 53 58.2315 52.94 57.6915 52.82C57.1715 52.7 56.7115 52.46 56.3115 52.1C55.9315 51.72 55.6315 51.3 55.4115 50.84C55.2115 50.38 55.0515 49.69 54.9315 48.77C54.7515 47.39 54.6615 45.54 54.6615 43.22C54.6615 40.88 54.6715 39.23 54.6915 38.27C54.7315 37.31 54.8115 36.38 54.9315 35.48C55.0515 34.56 55.2115 33.88 55.4115 33.44C55.6315 32.98 55.9315 32.57 56.3115 32.21C56.7115 31.83 57.1715 31.59 57.6915 31.49C58.2315 31.37 58.9015 31.31 59.7015 31.31H60.0615ZM61.2615 31.34H65.0715C65.8715 31.34 66.5315 31.4 67.0515 31.52C67.5915 31.64 68.0515 31.89 68.4315 32.27C68.8315 32.63 69.1315 33.04 69.3315 33.5C69.5515 33.96 69.7215 34.65 69.8415 35.57C70.0215 36.95 70.1115 38.81 70.1115 41.15C70.1115 43.47 70.0915 45.11 70.0515 46.07C70.0315 47.03 69.9615 47.97 69.8415 48.89C69.7215 49.79 69.5515 50.47 69.3315 50.93C69.1315 51.37 68.8315 51.78 68.4315 52.16C68.0515 52.52 67.5915 52.76 67.0515 52.88C66.5315 52.98 65.8715 53.03 65.0715 53.03H64.7115V35.06C64.7115 34.76 64.6315 34.54 64.4715 34.4C64.3315 34.26 64.0015 34.19 63.4815 34.19H61.2615V31.34ZM72.5059 31.31H81.8959C82.2159 31.31 82.4759 31.42 82.6759 31.64C82.8759 31.86 82.9759 32.15 82.9759 32.51V53H79.8259C79.1459 53 78.6959 52.89 78.4759 52.67C78.2759 52.45 78.1759 51.99 78.1759 51.29V35.06H73.3759C72.7959 35.06 72.5059 34.58 72.5059 33.62V31.31ZM84.1759 31.31H88.9759C89.5559 31.31 89.8459 31.79 89.8459 32.75V35.06H84.1759V31.31ZM97.0257 53H93.8757C93.1957 53 92.7457 52.89 92.5257 52.67C92.3257 52.45 92.2257 51.99 92.2257 51.29V33.02C92.2257 32.32 92.3257 31.86 92.5257 31.64C92.7457 31.42 93.1957 31.31 93.8757 31.31H97.0257V53ZM106.468 53H106.108C105.308 53 104.638 52.94 104.098 52.82C103.578 52.7 103.118 52.46 102.718 52.1C102.338 51.72 102.038 51.3 101.818 50.84C101.618 50.38 101.458 49.69 101.338 48.77C101.158 47.39 101.068 45.54 101.068 43.22C101.068 40.88 101.078 39.23 101.098 38.27C101.138 37.31 101.218 36.38 101.338 35.48C101.458 34.56 101.618 33.88 101.818 33.44C102.038 32.98 102.338 32.57 102.718 32.21C103.118 31.83 103.578 31.59 104.098 31.49C104.638 31.37 105.308 31.31 106.108 31.31H106.468V53ZM107.668 31.31H111.478C112.938 31.31 114.038 31.56 114.778 32.06C115.538 32.56 115.918 33.43 115.918 34.67V37.37C115.918 37.79 115.778 38 115.498 38H111.718C111.438 38 111.268 37.96 111.208 37.88C111.148 37.8 111.118 37.63 111.118 37.37V35.03C111.118 34.71 111.068 34.49 110.968 34.37C110.888 34.23 110.668 34.16 110.308 34.16H107.668V31.31ZM111.718 46.31H115.498C115.778 46.31 115.918 46.52 115.918 46.94V49.64C115.918 50.88 115.538 51.75 114.778 52.25C114.038 52.75 112.938 53 111.478 53H107.668V50.15H110.308C110.668 50.15 110.888 50.09 110.968 49.97C111.068 49.83 111.118 49.6 111.118 49.28V46.94C111.118 46.68 111.148 46.51 111.208 46.43C111.268 46.35 111.438 46.31 111.718 46.31ZM124.389 53H121.239C120.559 53 120.109 52.89 119.889 52.67C119.689 52.45 119.589 51.99 119.589 51.29V33.02C119.589 32.32 119.689 31.86 119.889 31.64C120.109 31.42 120.559 31.31 121.239 31.31H124.389V53ZM136.741 34.16H133.951C133.631 34.16 133.471 34.24 133.471 34.4V53H130.321C129.641 53 129.191 52.89 128.971 52.67C128.771 52.45 128.671 51.99 128.671 51.29V33.02C128.671 32.32 128.771 31.86 128.971 31.64C129.191 31.42 129.641 31.31 130.321 31.31H136.741V34.16ZM137.941 31.31H141.091C141.771 31.31 142.211 31.42 142.411 31.64C142.631 31.86 142.741 32.32 142.741 33.02V51.26C142.741 51.96 142.631 52.43 142.411 52.67C142.191 52.89 141.751 53 141.091 53H137.941V42.95H134.671V40.1H137.941V31.31ZM151.961 31.34V39.95C151.961 40.27 152.031 40.5 152.171 40.64C152.331 40.78 152.671 40.85 153.191 40.85H155.411V43.7H151.601C150.461 43.7 149.541 43.58 148.841 43.34C148.161 43.1 147.651 42.68 147.311 42.08C146.991 41.46 146.781 40.8 146.681 40.1C146.601 39.4 146.561 38.46 146.561 37.28C146.561 36.08 146.601 35.17 146.681 34.55C146.781 33.93 146.991 33.35 147.311 32.81C147.651 32.27 148.161 31.89 148.841 31.67C149.541 31.45 150.461 31.34 151.601 31.34H151.961ZM156.611 40.85H156.971C157.831 40.85 158.491 40.87 158.951 40.91C159.431 40.93 159.891 41.02 160.331 41.18C160.771 41.32 161.071 41.49 161.231 41.69C161.411 41.89 161.571 42.24 161.711 42.74C161.871 43.22 161.961 43.74 161.981 44.3C162.001 44.86 162.011 45.66 162.011 46.7C162.011 47.74 162.001 48.57 161.981 49.19C161.961 49.79 161.871 50.37 161.711 50.93C161.571 51.47 161.411 51.85 161.231 52.07C161.071 52.29 160.771 52.49 160.331 52.67C159.891 52.83 159.431 52.93 158.951 52.97C158.491 52.99 157.831 53 156.971 53H156.611V40.85ZM146.981 46.31H150.761C151.041 46.31 151.211 46.35 151.271 46.43C151.331 46.51 151.361 46.68 151.361 46.94V49.28C151.361 49.6 151.401 49.83 151.481 49.97C151.581 50.09 151.811 50.15 152.171 50.15H155.411V53H151.001C149.541 53 148.431 52.75 147.671 52.25C146.931 51.75 146.561 50.88 146.561 49.64V46.94C146.561 46.52 146.701 46.31 146.981 46.31ZM153.161 31.31H156.971C158.431 31.31 159.531 31.56 160.271 32.06C161.031 32.56 161.411 33.43 161.411 34.67V37.37C161.411 37.79 161.271 38 160.991 38H157.211C156.931 38 156.761 37.96 156.701 37.88C156.641 37.8 156.611 37.63 156.611 37.37V35.03C156.611 34.71 156.561 34.49 156.461 34.37C156.381 34.23 156.161 34.16 155.801 34.16H153.161V31.31Z" fill="url(#paint2_linear_65_6)"/>
<rect x="28.5132" y="0.732178" width="140.075" height="9.63016" rx="4.81508" fill="url(#paint3_linear_65_6)"/>
<defs>
<filter id="filter0_d_65_6" x="0.5" y="11.3762" width="196" height="59.1238" filterUnits="userSpaceOnUse" color-interpolation-filters="sRGB">
<feFlood flood-opacity="0" result="BackgroundImageFix"/>
<feColorMatrix in="SourceAlpha" type="matrix" values="0 0 0 0 0 0 0 0 0 0 0 0 0 0 0 0 0 0 127 0" result="hardAlpha"/>
<feOffset/>
<feGaussianBlur stdDeviation="1.5"/>
<feColorMatrix type="matrix" values="0 0 0 0 0 0 0 0 0 0 0 0 0 0 0 0 0 0 0.25 0"/>
<feBlend mode="screen" in2="BackgroundImageFix" result="effect1_dropShadow_65_6"/>
<feBlend mode="normal" in="SourceGraphic" in2="effect1_dropShadow_65_6" result="shape"/>
</filter>
<linearGradient id="paint0_linear_65_6" x1="98.7838" y1="88.5294" x2="98.7838" y2="-15.7183" gradientUnits="userSpaceOnUse">
<stop offset="0.380208" stop-color="#ECECEC"/>
<stop offset="0.708333" stop-color="#F1F1F1"/>
<stop offset="0.9998"/>
<stop offset="0.9999" stop-color="#EEEEEE"/>
</linearGradient>
<linearGradient id="paint1_linear_65_6" x1="248.732" y1="66.9996" x2="63.0924" y2="-129.867" gradientUnits="userSpaceOnUse">
<stop stop-opacity="0"/>
<stop offset="0.317708" stop-color="#00C2FF"/>
<stop offset="0.65625" stop-color="#FF0000"/>
<stop offset="1" stop-opacity="0"/>
</linearGradient>
<linearGradient id="paint2_linear_65_6" x1="98" y1="23" x2="98" y2="79.4545" gradientUnits="userSpaceOnUse">
<stop/>
<stop offset="1" stop-color="#DD0909"/>
</linearGradient>
<linearGradient id="paint3_linear_65_6" x1="176.467" y1="-25.9697" x2="35.5169" y2="80.3998" gradientUnits="userSpaceOnUse">
<stop stop-color="#00A3FF"/>
<stop offset="1" stop-color="#FF0000"/>
</linearGradient>
</defs>
</svg>
