<svg width="197" height="71" viewBox="0 0 197 71" fill="none" xmlns="http://www.w3.org/2000/svg">
<g filter="url(#filter0_d_66_9)">
<path d="M193 67L4 67L4.00001 34.8761C4.00001 23.8304 12.9543 14.8761 24 14.8761L173 14.8761C184.046 14.8761 193 23.8304 193 34.8761L193 67Z" fill="url(#paint0_linear_66_9)"/>
<path d="M193 67L4 67L4.00001 34.8761C4.00001 23.8304 12.9543 14.8761 24 14.8761L173 14.8761C184.046 14.8761 193 23.8304 193 34.8761L193 67Z" stroke="url(#paint1_linear_66_9)"/>
</g>
<path d="M59.08 31.34V39.95C59.08 40.27 59.15 40.5 59.29 40.64C59.45 40.78 59.79 40.85 60.31 40.85H62.53V43.7H58.72C57.58 43.7 56.66 43.58 55.96 43.34C55.28 43.1 54.77 42.68 54.43 42.08C54.11 41.46 53.9 40.8 53.8 40.1C53.72 39.4 53.68 38.46 53.68 37.28C53.68 36.08 53.72 35.17 53.8 34.55C53.9 33.93 54.11 33.35 54.43 32.81C54.77 32.27 55.28 31.89 55.96 31.67C56.66 31.45 57.58 31.34 58.72 31.34H59.08ZM63.73 40.85H64.09C64.95 40.85 65.61 40.87 66.07 40.91C66.55 40.93 67.01 41.02 67.45 41.18C67.89 41.32 68.19 41.49 68.35 41.69C68.53 41.89 68.69 42.24 68.83 42.74C68.99 43.22 69.08 43.74 69.1 44.3C69.12 44.86 69.13 45.66 69.13 46.7C69.13 47.74 69.12 48.57 69.1 49.19C69.08 49.79 68.99 50.37 68.83 50.93C68.69 51.47 68.53 51.85 68.35 52.07C68.19 52.29 67.89 52.49 67.45 52.67C67.01 52.83 66.55 52.93 66.07 52.97C65.61 52.99 64.95 53 64.09 53H63.73V40.85ZM54.1 46.31H57.88C58.16 46.31 58.33 46.35 58.39 46.43C58.45 46.51 58.48 46.68 58.48 46.94V49.28C58.48 49.6 58.52 49.83 58.6 49.97C58.7 50.09 58.93 50.15 59.29 50.15H62.53V53H58.12C56.66 53 55.55 52.75 54.79 52.25C54.05 51.75 53.68 50.88 53.68 49.64V46.94C53.68 46.52 53.82 46.31 54.1 46.31ZM60.28 31.31H64.09C65.55 31.31 66.65 31.56 67.39 32.06C68.15 32.56 68.53 33.43 68.53 34.67V37.37C68.53 37.79 68.39 38 68.11 38H64.33C64.05 38 63.88 37.96 63.82 37.88C63.76 37.8 63.73 37.63 63.73 37.37V35.03C63.73 34.71 63.68 34.49 63.58 34.37C63.5 34.23 63.28 34.16 62.92 34.16H60.28V31.31ZM78.0107 31.31V49.28C78.0107 49.58 78.0807 49.8 78.2207 49.94C78.3807 50.08 78.7207 50.15 79.2407 50.15H81.4607V53H77.6507C76.8507 53 76.1807 52.94 75.6407 52.82C75.1207 52.7 74.6607 52.46 74.2607 52.1C73.8807 51.72 73.5807 51.3 73.3607 50.84C73.1607 50.38 73.0007 49.69 72.8807 48.77C72.7007 47.39 72.6107 45.54 72.6107 43.22C72.6107 40.88 72.6207 39.23 72.6407 38.27C72.6807 37.31 72.7607 36.38 72.8807 35.48C73.0007 34.56 73.1607 33.88 73.3607 33.44C73.5807 32.98 73.8807 32.57 74.2607 32.21C74.6607 31.83 75.1207 31.59 75.6407 31.49C76.1807 31.37 76.8507 31.31 77.6507 31.31H78.0107ZM79.2107 31.34H83.0207C83.8207 31.34 84.4807 31.4 85.0007 31.52C85.5407 31.64 86.0007 31.89 86.3807 32.27C86.7807 32.63 87.0807 33.04 87.2807 33.5C87.5007 33.96 87.6707 34.65 87.7907 35.57C87.9707 36.95 88.0607 38.81 88.0607 41.15C88.0607 43.47 88.0407 45.11 88.0007 46.07C87.9807 47.03 87.9107 47.97 87.7907 48.89C87.6707 49.79 87.5007 50.47 87.2807 50.93C87.0807 51.37 86.7807 51.78 86.3807 52.16C86.0007 52.52 85.5407 52.76 85.0007 52.88C84.4807 52.98 83.8207 53.03 83.0207 53.03H82.6607V35.06C82.6607 34.76 82.5807 34.54 82.4207 34.4C82.2807 34.26 81.9507 34.19 81.4307 34.19H79.2107V31.34ZM100.139 34.16H97.3495C97.0295 34.16 96.8695 34.24 96.8695 34.4V53H93.7195C93.0395 53 92.5895 52.9 92.3695 52.7C92.1695 52.48 92.0695 52.03 92.0695 51.35V33.02C92.0695 32.32 92.1695 31.86 92.3695 31.64C92.5895 31.42 93.0395 31.31 93.7195 31.31H100.139V34.16ZM101.819 43.58H104.669C105.489 43.58 106.019 43.77 106.259 44.15C106.499 44.51 106.619 45.09 106.619 45.89V50.33C106.619 51.65 106.269 52.46 105.569 52.76C105.229 52.92 104.799 53 104.279 53H98.0695V50.18H100.589C101.409 50.18 101.819 49.89 101.819 49.31V43.58ZM101.429 31.31H104.279C105.079 31.31 105.589 31.49 105.809 31.85C106.049 32.21 106.169 32.8 106.169 33.62V39.38C106.169 40.54 105.959 41.38 105.539 41.9C105.139 42.42 104.289 42.68 102.989 42.68H98.0695V39.83H100.289C100.789 39.83 101.099 39.71 101.219 39.47C101.359 39.23 101.429 38.86 101.429 38.36V31.31ZM115.268 53H112.118C111.438 53 110.988 52.89 110.768 52.67C110.568 52.45 110.468 51.99 110.468 51.29V32.51C110.468 32.15 110.568 31.86 110.768 31.64C110.968 31.42 111.228 31.31 111.548 31.31H115.268V53ZM116.468 31.31H120.278C121.438 31.31 122.348 31.4 123.008 31.58C123.688 31.76 124.198 32.12 124.538 32.66C124.878 33.18 125.088 33.77 125.168 34.43C125.268 35.07 125.318 35.98 125.318 37.16C125.318 38.34 125.268 39.24 125.168 39.86C125.088 40.48 124.878 41.06 124.538 41.6C124.218 42.14 123.708 42.52 123.008 42.74C122.328 42.96 121.418 43.07 120.278 43.07H116.468V40.22H118.688C119.208 40.22 119.538 40.15 119.678 40.01C119.838 39.87 119.918 39.65 119.918 39.35V35.06C119.918 34.74 119.838 34.51 119.678 34.37C119.538 34.23 119.208 34.16 118.688 34.16H116.468V31.31ZM119.348 44H123.068C123.668 44 124.098 44.17 124.358 44.51C124.618 44.83 124.748 45.36 124.748 46.1V53H120.428C120.108 53 119.848 52.89 119.648 52.67C119.448 52.45 119.348 52.16 119.348 51.8V44ZM133.842 53H130.692C130.012 53 129.562 52.89 129.342 52.67C129.142 52.45 129.042 51.99 129.042 51.29V33.02C129.042 32.32 129.142 31.86 129.342 31.64C129.562 31.42 130.012 31.31 130.692 31.31H133.842V53ZM143.112 48.8V51.35C143.112 52.03 143.002 52.48 142.782 52.7C142.562 52.9 142.102 53 141.402 53H135.042V48.8H143.112ZM141.312 39.95V41.75C141.312 42.47 141.242 42.93 141.102 43.13C140.962 43.31 140.562 43.4 139.902 43.4H135.042V39.95H141.312ZM142.812 31.31V33.86C142.812 34.54 142.702 34.99 142.482 35.21C142.262 35.41 141.802 35.51 141.102 35.51H135.042V31.31H142.812Z" fill="url(#paint2_linear_66_9)"/>
<rect x="28.5132" y="0.732178" width="140.075" height="9.63016" rx="4.81508" fill="url(#paint3_linear_66_9)"/>
<defs>
<filter id="filter0_d_66_9" x="0.5" y="11.3762" width="196" height="59.1238" filterUnits="userSpaceOnUse" color-interpolation-filters="sRGB">
<feFlood flood-opacity="0" result="BackgroundImageFix"/>
<feColorMatrix in="SourceAlpha" type="matrix" values="0 0 0 0 0 0 0 0 0 0 0 0 0 0 0 0 0 0 127 0" result="hardAlpha"/>
<feOffset/>
<feGaussianBlur stdDeviation="1.5"/>
<feColorMatrix type="matrix" values="0 0 0 0 0 0 0 0 0 0 0 0 0 0 0 0 0 0 0.25 0"/>
<feBlend mode="screen" in2="BackgroundImageFix" result="effect1_dropShadow_66_9"/>
<feBlend mode="normal" in="SourceGraphic" in2="effect1_dropShadow_66_9" result="shape"/>
</filter>
<linearGradient id="paint0_linear_66_9" x1="98.7838" y1="88.5294" x2="98.7838" y2="-15.7183" gradientUnits="userSpaceOnUse">
<stop offset="0.380208" stop-color="#ECECEC"/>
<stop offset="0.708333" stop-color="#F1F1F1"/>
<stop offset="0.9998"/>
<stop offset="0.9999" stop-color="#EEEEEE"/>
</linearGradient>
<linearGradient id="paint1_linear_66_9" x1="248.732" y1="66.9996" x2="63.0924" y2="-129.867" gradientUnits="userSpaceOnUse">
<stop stop-opacity="0"/>
<stop offset="0.317708" stop-color="#00C2FF"/>
<stop offset="0.65625" stop-color="#FF0000"/>
<stop offset="1" stop-opacity="0"/>
</linearGradient>
<linearGradient id="paint2_linear_66_9" x1="98.5" y1="23" x2="98.5" y2="79.4545" gradientUnits="userSpaceOnUse">
<stop/>
<stop offset="1" stop-color="#DD0909"/>
</linearGradient>
<linearGradient id="paint3_linear_66_9" x1="176.467" y1="-25.9697" x2="35.5169" y2="80.3998" gradientUnits="userSpaceOnUse">
<stop stop-color="#00A3FF"/>
<stop offset="1" stop-color="#FF0000"/>
</linearGradient>
</defs>
</svg>
